<svg xmlns="http://www.w3.org/2000/svg" version="1.1" xmlns:xlink="http://www.w3.org/1999/xlink" xmlns:svgjs="http://svgjs.dev/svgjs" width="1000" height="1000" viewBox="0 0 1000 1000"><rect width="1000" height="1000" fill="#000000"></rect><g transform="matrix(0.7,0,0,0.7,149.57575757575756,425.802805853833)"><svg viewBox="0 0 396 84" data-background-color="#ffffff" preserveAspectRatio="xMidYMid meet" height="212" width="1000" xmlns="http://www.w3.org/2000/svg" xmlns:xlink="http://www.w3.org/1999/xlink"><g id="tight-bounds" transform="matrix(1,0,0,1,0.2400000000000091,-0.001588219150733039)"><svg viewBox="0 0 395.52 84.0031764383015" height="84.0031764383015" width="395.52"><g><svg viewBox="0 0 511.5758967284189 108.6519020895522" height="84.0031764383015" width="395.52"><g transform="matrix(1,0,0,1,116.05589672841896,33.57501481682495)"><svg viewBox="0 0 395.52 41.501872455902294" height="41.501872455902294" width="395.52"><g><svg viewBox="0 0 395.52 41.501872455902294" height="41.501872455902294" width="395.52"><g><svg viewBox="0 0 395.52 41.501872455902294" height="41.501872455902294" width="395.52"><g transform="matrix(1,0,0,1,0,0)"><svg width="395.52" viewBox="1.1 -33.9 331.63 34.8" height="41.501872455902294" data-palette-color="#010c80"><path d="M14.7 0L1.1 0 1.1-0.5 2-0.8Q3-1.15 3.35-1.75 3.7-2.35 3.7-3.35L3.7-3.35Q3.75-6.35 3.75-9.4 3.75-12.45 3.75-15.5L3.75-15.5 3.75-17.5Q3.75-20.5 3.75-23.53 3.75-26.55 3.7-29.55L3.7-29.55Q3.7-30.55 3.43-31.15 3.15-31.75 2.2-32.1L2.2-32.1 1.1-32.5 1.1-33 25.3-33 25.65-24.7 25.15-24.7 22.3-29.95Q21.8-30.9 21.15-31.45 20.5-32 19.35-32L19.35-32 11.3-32Q11.25-28.45 11.25-24.75 11.25-21.05 11.25-17.4L11.25-17.4 16.45-17.4Q17.6-17.4 18.15-17.9 18.7-18.4 19.2-19.35L19.2-19.35 20.25-21.25 20.75-21.25 20.75-12.5 20.25-12.5 19.15-14.4Q18.65-15.3 18.13-15.85 17.6-16.4 16.45-16.4L16.45-16.4 11.25-16.4Q11.25-12.9 11.25-9.73 11.25-6.55 11.3-3.5L11.3-3.5Q11.3-1.55 13.2-0.95L13.2-0.95 14.7-0.5 14.7 0ZM52.3 0L28 0 28-0.5 29.05-0.9Q30.1-1.3 30.37-1.88 30.65-2.45 30.65-3.45L30.65-3.45 30.65-29.55Q30.65-30.55 30.35-31.15 30.05-31.75 29.05-32.1L29.05-32.1 28-32.5 28-33 40.75-33 40.75-32.5 39.85-32.1Q38.9-31.75 38.55-31.13 38.2-30.5 38.2-29.5L38.2-29.5 38.2-1 45.9-1Q47.75-1 48.62-1.9 49.5-2.8 50.3-4.5L50.3-4.5 52.25-8.7 52.75-8.7 52.3 0ZM70.65 0.9L70.65 0.9Q67.59 0.9 64.77-0.2 61.95-1.3 59.72-3.48 57.5-5.65 56.2-8.9 54.9-12.15 54.9-16.5L54.9-16.5Q54.9-20.8 56.2-24.05 57.5-27.3 59.75-29.48 62-31.65 64.82-32.77 67.65-33.9 70.65-33.9L70.65-33.9Q73.7-33.9 76.52-32.83 79.34-31.75 81.57-29.58 83.8-27.4 85.09-24.13 86.4-20.85 86.4-16.5L86.4-16.5Q86.4-12.25 85.09-8.97 83.8-5.7 81.57-3.53 79.34-1.35 76.52-0.23 73.7 0.9 70.65 0.9ZM70.65-0.15L70.65-0.15Q73.4-0.15 75.09-1.63 76.8-3.1 77.57-6.68 78.34-10.25 78.34-16.5L78.34-16.5Q78.34-22.8 77.57-26.38 76.8-29.95 75.09-31.43 73.4-32.9 70.65-32.9L70.65-32.9Q67.95-32.9 66.25-31.43 64.55-29.95 63.77-26.38 63-22.8 63-16.5L63-16.5Q63-10.25 63.77-6.68 64.55-3.1 66.25-1.63 67.95-0.15 70.65-0.15ZM102.64 0.15L99.19 0.15 90.34-29.6Q89.99-30.75 89.59-31.28 89.19-31.8 88.19-32.25L88.19-32.25 87.59-32.5 87.59-33 100.84-33 100.84-32.5 99.79-32.1Q98.64-31.65 98.24-31 97.84-30.35 98.19-29.2L98.19-29.2 103.64-8.4 109.54-25.85 108.39-29.4Q108.04-30.45 107.74-31 107.44-31.55 106.74-31.9L106.74-31.9 105.64-32.5 105.64-33 118.19-33 118.19-32.5 116.64-31.9Q115.64-31.55 115.52-30.88 115.39-30.2 115.74-29.15L115.74-29.15 122.09-7.9 128.09-28.75Q128.44-29.95 128.34-30.85 128.24-31.75 127.09-32.15L127.09-32.15 126.04-32.5 126.04-33 132.99-33 132.99-32.5 131.69-32Q130.69-31.65 130.29-30.9 129.89-30.15 129.59-29.05L129.59-29.05 121.29 0.15 117.84 0.15 110.34-23.35 102.64 0.15ZM159.49 0L134.54 0 134.54-0.5 135.69-0.95Q136.54-1.3 136.87-1.88 137.19-2.45 137.19-3.45L137.19-3.45 137.19-29.55Q137.19-30.55 136.92-31.13 136.64-31.7 135.69-32.05L135.69-32.05 134.54-32.5 134.54-33 158.49-33 158.79-25.3 158.29-25.3 156.14-30Q155.69-30.9 155.19-31.45 154.69-32 153.69-32L153.69-32 144.69-32 144.69-17.55 150.04-17.55Q151.04-17.55 151.57-18.07 152.09-18.6 152.49-19.5L152.49-19.5 153.49-21.5 153.99-21.5 153.99-12.5 153.49-12.5 152.49-14.6Q152.04-15.5 151.54-16.03 151.04-16.55 150.04-16.55L150.04-16.55 144.69-16.55 144.69-1 154.79-1Q155.79-1 156.34-1.53 156.89-2.05 157.24-3L157.24-3 159.29-7.7 159.79-7.7 159.49 0ZM175.09 0L162.29 0 162.29-0.5 163.34-0.85Q164.34-1.2 164.64-1.78 164.94-2.35 164.94-3.4L164.94-3.4 164.94-29.55Q164.94-30.55 164.66-31.13 164.39-31.7 163.44-32.05L163.44-32.05 162.29-32.5 162.29-33 176.59-33Q182.49-33 185.64-30.78 188.79-28.55 188.79-24.6L188.79-24.6Q188.79-22.4 187.14-20.2 185.49-18 181.94-16.8L181.94-16.8 188.89-3Q189.34-2.15 189.91-1.63 190.49-1.1 191.44-0.7L191.44-0.7 192.09-0.45 192.09 0 183.14 0 175.74-15.75 172.34-15.75 172.34-3.4Q172.34-2.45 172.64-1.85 172.94-1.25 173.89-0.95L173.89-0.95 175.09-0.5 175.09 0ZM172.34-32L172.34-16.75 174.74-16.75Q178.34-16.75 179.94-18.68 181.54-20.6 181.54-24.4L181.54-24.4Q181.54-28.25 180.04-30.13 178.54-32 174.99-32L174.99-32 172.34-32ZM218.18 0L204.58 0 204.58-0.5 205.48-0.8Q206.48-1.15 206.83-1.75 207.18-2.35 207.18-3.35L207.18-3.35Q207.23-6.35 207.23-9.4 207.23-12.45 207.23-15.5L207.23-15.5 207.23-17.5Q207.23-20.5 207.23-23.53 207.23-26.55 207.18-29.55L207.18-29.55Q207.18-30.55 206.91-31.15 206.63-31.75 205.68-32.1L205.68-32.1 204.58-32.5 204.58-33 228.78-33 229.13-24.7 228.63-24.7 225.78-29.95Q225.28-30.9 224.63-31.45 223.98-32 222.83-32L222.83-32 214.78-32Q214.73-28.45 214.73-24.75 214.73-21.05 214.73-17.4L214.73-17.4 219.93-17.4Q221.08-17.4 221.63-17.9 222.18-18.4 222.68-19.35L222.68-19.35 223.73-21.25 224.23-21.25 224.23-12.5 223.73-12.5 222.63-14.4Q222.13-15.3 221.61-15.85 221.08-16.4 219.93-16.4L219.93-16.4 214.73-16.4Q214.73-12.9 214.73-9.73 214.73-6.55 214.78-3.5L214.78-3.5Q214.78-1.55 216.68-0.95L216.68-0.95 218.18-0.5 218.18 0ZM237.68 0L230.78 0 230.78-0.5 232.03-0.95Q233.03-1.35 233.58-1.93 234.13-2.5 234.48-3.55L234.48-3.55 244.78-33.1 249.03-33.1 259.18-3.35Q259.58-2.25 260.08-1.68 260.58-1.1 261.63-0.7L261.63-0.7 262.23-0.5 262.23 0 249.53 0 249.53-0.5 250.28-0.75Q251.33-1.15 251.56-1.88 251.78-2.6 251.48-3.6L251.48-3.6 249.13-10.8 238.03-10.8 235.63-3.75Q235.28-2.65 235.41-2 235.53-1.35 236.58-0.95L236.58-0.95 237.68-0.5 237.68 0ZM243.78-27.35L238.38-11.8 248.83-11.8 243.78-27.35ZM276.78 0L263.98 0 263.98-0.5 265.03-0.85Q266.03-1.2 266.33-1.78 266.63-2.35 266.63-3.4L266.63-3.4 266.63-29.55Q266.63-30.55 266.35-31.13 266.08-31.7 265.13-32.05L265.13-32.05 263.98-32.5 263.98-33 278.28-33Q284.18-33 287.33-30.78 290.48-28.55 290.48-24.6L290.48-24.6Q290.48-22.4 288.83-20.2 287.18-18 283.63-16.8L283.63-16.8 290.58-3Q291.03-2.15 291.6-1.63 292.18-1.1 293.13-0.7L293.13-0.7 293.78-0.45 293.78 0 284.83 0 277.43-15.75 274.03-15.75 274.03-3.4Q274.03-2.45 274.33-1.85 274.63-1.25 275.58-0.95L275.58-0.95 276.78-0.5 276.78 0ZM274.03-32L274.03-16.75 276.43-16.75Q280.03-16.75 281.63-18.68 283.23-20.6 283.23-24.4L283.23-24.4Q283.23-28.25 281.73-30.13 280.23-32 276.68-32L276.68-32 274.03-32ZM301.88 0L295.28 0 295.28-0.5 296.28-0.85Q297.98-1.4 297.98-3.7L297.98-3.7 297.98-29.3Q297.98-30.3 297.75-30.9 297.53-31.5 296.58-31.9L296.58-31.9 295.28-32.5 295.28-33 304.93-33 314.18-8.8 322.88-33 332.73-33 332.73-32.5 331.93-32.2Q330.98-31.85 330.63-31.23 330.28-30.6 330.28-29.6L330.28-29.6 330.28-3.45Q330.28-2.45 330.53-1.9 330.78-1.35 331.73-0.95L331.73-0.95 332.73-0.5 332.73 0 320.28 0 320.28-0.5 321.33-0.95Q322.28-1.35 322.53-1.9 322.78-2.45 322.78-3.45L322.78-3.45 322.78-14.7 322.88-29 312.43 0 309.93 0 299.03-28.65 299.18-16.2 299.18-3.6Q299.18-2.5 299.5-1.83 299.83-1.15 300.78-0.85L300.78-0.85 301.88-0.5 301.88 0Z" opacity="1" transform="matrix(1,0,0,1,0,0)" fill="#ffffff" class="undefined-text-0" data-fill-palette-color="primary" id="text-0"></path></svg></g></svg></g></svg></g></svg></g><g><svg viewBox="0 0 106.25830068651936 108.6519020895522" height="108.6519020895522" width="106.25830068651936"><g><svg version="1.1" xmlns="http://www.w3.org/2000/svg" xmlns:xlink="http://www.w3.org/1999/xlink" x="0" y="0" viewBox="0 0 97.797 100" enable-background="new 0 0 97.797 100" xml:space="preserve" width="106.25830068651936" height="108.6519020895522" class="icon-icon-0" data-fill-palette-color="accent" id="icon-0"><g fill="#b95dbd" data-fill-palette-color="accent"><path fill="#ffffff" d="M92.949 28.574c-0.589-1.233-1.232-2.436-1.917-3.612-31.763 6.55-70.245 23.78-87.199 49.308 4.169 7.551 10.231 13.907 17.545 18.437C36.124 64.16 74.268 35.392 92.949 28.574z" data-fill-palette-color="accent"></path><path fill="#ffffff" d="M88.161 20.564C79.049 8.101 64.326 0 47.705 0 26.224 0 7.908 13.525 0.79 32.522 26.45 19.774 66.517 17.275 88.161 20.564z" data-fill-palette-color="accent"></path><path fill="#ffffff" d="M51.853 100c25.723-2.111 45.944-23.641 45.944-49.908 0-6.846-1.377-13.369-3.861-19.312C76.481 48.621 58.938 74.629 51.853 100z" data-fill-palette-color="accent"></path><rect x="10.784" y="47.083" fill="#ffffff" width="1.575" height="14.367" data-fill-palette-color="accent"></rect><path fill="#ffffff" d="M8.768 35.951c2.803 2.63 3.716 8.27 3.552 11.111 5.571-4.525-0.565-13.208-5.431-14.315 0.33 2.208 0.107 4.251-0.223 6.076-0.72 4.025 1.159 7.949 4.2 8.27C10.946 45.055 11.571 42.173 8.768 35.951z" data-fill-palette-color="accent"></path><path fill="#ffffff" d="M2.507 48.42c1.666-0.761 5.88-0.401 7.699 0.08C7.021 43.682 1.279 46.665 0 48.998c1.53 0.238 2.834 0.812 3.973 1.406 2.511 1.313 5.496 0.885 6.342-1.062C8.983 48.871 4.428 48.385 2.507 48.42z" data-fill-palette-color="accent"></path><path fill="#ffffff" d="M18.505 46.233c-0.396 1.782-3.227 4.932-4.702 6.089 5.761 0.368 6.845-6.013 5.754-8.439-1.114 1.077-2.359 1.771-3.519 2.32-2.565 1.211-4.021 3.854-2.98 5.699C14.244 51.126 17.379 47.783 18.505 46.233z" data-fill-palette-color="accent"></path><rect x="45.054" y="83.666" fill="#ffffff" width="1.575" height="14.367" data-fill-palette-color="accent"></rect><path fill="#ffffff" d="M43.039 72.534c2.803 2.63 3.716 8.27 3.552 11.109 5.572-4.523-0.565-13.208-5.431-14.313 0.33 2.208 0.106 4.253-0.223 6.075-0.72 4.024 1.159 7.951 4.2 8.271C45.216 81.638 45.841 78.755 43.039 72.534z" data-fill-palette-color="accent"></path><path fill="#ffffff" d="M36.778 85.003c1.666-0.763 5.88-0.401 7.698 0.079-3.186-4.818-8.927-1.836-10.207 0.497 1.53 0.238 2.835 0.812 3.973 1.406 2.511 1.313 5.496 0.885 6.342-1.059C43.255 85.452 38.7 84.968 36.778 85.003z" data-fill-palette-color="accent"></path><path fill="#ffffff" d="M52.779 82.815c-0.396 1.783-3.226 4.933-4.701 6.09 5.761 0.366 6.846-6.015 5.754-8.439-1.114 1.075-2.359 1.77-3.519 2.319-2.562 1.21-4.021 3.854-2.978 5.698C48.516 87.707 51.651 84.363 52.779 82.815z" data-fill-palette-color="accent"></path><rect x="31.124" y="35.936" fill="#ffffff" width="1.145" height="10.435" data-fill-palette-color="accent"></rect><path fill="#ffffff" d="M29.66 27.853c2.035 1.909 2.698 6.005 2.578 8.067 4.048-3.285-0.411-9.592-3.942-10.393 0.24 1.603 0.077 3.088-0.164 4.412-0.521 2.921 0.842 5.773 3.05 6.007C31.241 34.464 31.695 32.37 29.66 27.853z" data-fill-palette-color="accent"></path><path fill="#ffffff" d="M25.113 36.907c1.208-0.552 4.27-0.291 5.592 0.058-2.316-3.499-6.483-1.333-7.412 0.361 1.111 0.173 2.059 0.589 2.885 1.021 1.825 0.955 3.991 0.643 4.605-0.769C29.816 37.232 26.509 36.882 25.113 36.907z" data-fill-palette-color="accent"></path><path fill="#ffffff" d="M36.733 35.32c-0.289 1.293-2.343 3.581-3.414 4.421 4.183 0.266 4.971-4.368 4.18-6.13-0.811 0.78-1.713 1.286-2.556 1.685-1.863 0.878-2.92 2.8-2.164 4.138C33.638 38.873 35.916 36.444 36.733 35.32z" data-fill-palette-color="accent"></path><rect x="58.464" y="65.586" fill="#ffffff" width="1.146" height="10.438" data-fill-palette-color="accent"></rect><path fill="#ffffff" d="M57 57.504c2.035 1.909 2.697 6.006 2.58 8.067 4.047-3.285-0.411-9.593-3.943-10.395 0.241 1.604 0.078 3.09-0.165 4.414-0.52 2.922 0.843 5.773 3.051 6.008C58.582 64.114 59.036 62.021 57 57.504z" data-fill-palette-color="accent"></path><path fill="#ffffff" d="M52.453 66.561c1.209-0.555 4.27-0.294 5.593 0.057-2.315-3.5-6.482-1.333-7.411 0.36 1.108 0.174 2.059 0.591 2.886 1.021 1.827 0.953 3.991 0.644 4.606-0.771C57.159 66.885 53.849 66.534 52.453 66.561z" data-fill-palette-color="accent"></path><path fill="#ffffff" d="M64.073 64.97c-0.288 1.292-2.342 3.582-3.414 4.423 4.183 0.264 4.97-4.367 4.18-6.131-0.81 0.781-1.713 1.288-2.555 1.686-1.862 0.878-2.922 2.799-2.164 4.136C60.978 68.522 63.254 66.094 64.073 64.97z" data-fill-palette-color="accent"></path><rect x="50.152" y="28.824" fill="#ffffff" width="0.818" height="7.002" data-fill-palette-color="accent"></rect><path fill="#ffffff" d="M49.015 23.401c1.548 1.282 2.05 4.028 1.962 5.413 3.078-2.204-0.314-6.436-3.002-6.975 0.184 1.078 0.059 2.072-0.124 2.96-0.395 1.961 0.642 3.873 2.322 4.029C50.214 27.838 50.559 26.432 49.015 23.401z" data-fill-palette-color="accent"></path><path fill="#ffffff" d="M45.555 29.477c0.92-0.371 3.245-0.196 4.252 0.038-1.76-2.347-4.929-0.895-5.635 0.242 0.845 0.116 1.565 0.396 2.194 0.686 1.388 0.64 3.034 0.43 3.5-0.518C49.132 29.695 46.618 29.462 45.555 29.477z" data-fill-palette-color="accent"></path><path fill="#ffffff" d="M54.392 28.412c-0.219 0.869-1.779 2.403-2.598 2.967 3.18 0.177 3.78-2.932 3.178-4.114-0.617 0.524-1.304 0.865-1.944 1.13-1.416 0.59-2.219 1.878-1.644 2.778C52.036 30.797 53.77 29.167 54.392 28.412z" data-fill-palette-color="accent"></path><rect x="70.946" y="49.618" fill="#ffffff" width="0.816" height="7.002" data-fill-palette-color="accent"></rect><path fill="#ffffff" d="M69.807 44.197c1.548 1.281 2.053 4.028 1.962 5.411 3.079-2.202-0.313-6.436-2.999-6.975 0.183 1.078 0.059 2.073-0.123 2.962-0.396 1.96 0.64 3.872 2.32 4.029C71.009 48.632 71.355 47.228 69.807 44.197z" data-fill-palette-color="accent"></path><path fill="#ffffff" d="M66.349 50.271c0.919-0.37 3.246-0.195 4.253 0.038-1.76-2.347-4.93-0.894-5.637 0.242 0.845 0.116 1.566 0.396 2.195 0.686 1.385 0.641 3.032 0.431 3.5-0.517C69.925 50.489 67.412 50.256 66.349 50.271z" data-fill-palette-color="accent"></path><path fill="#ffffff" d="M75.187 49.207c-0.222 0.869-1.781 2.402-2.601 2.965 3.183 0.178 3.782-2.931 3.18-4.112-0.618 0.524-1.303 0.862-1.944 1.129-1.414 0.59-2.22 1.878-1.646 2.777C72.831 51.589 74.563 49.96 75.187 49.207z" data-fill-palette-color="accent"></path><rect x="65.704" y="25.275" fill="#ffffff" width="0.551" height="4.727" data-fill-palette-color="accent"></rect><path fill="#ffffff" d="M64.935 21.616c1.042 0.865 1.383 2.718 1.322 3.653 2.078-1.489-0.208-4.345-2.025-4.707 0.124 0.727 0.039 1.398-0.083 1.999-0.269 1.323 0.434 2.615 1.567 2.72C65.745 24.61 65.977 23.661 64.935 21.616z" data-fill-palette-color="accent"></path><path fill="#ffffff" d="M62.598 25.716c0.619-0.25 2.189-0.132 2.871 0.027-1.188-1.585-3.327-0.603-3.804 0.163 0.57 0.079 1.06 0.268 1.483 0.463 0.936 0.432 2.047 0.29 2.359-0.35C65.013 25.863 63.315 25.707 62.598 25.716z" data-fill-palette-color="accent"></path><path fill="#ffffff" d="M68.565 24.997c-0.149 0.587-1.206 1.622-1.753 2.003 2.146 0.12 2.548-1.978 2.143-2.777-0.416 0.354-0.878 0.583-1.312 0.764-0.955 0.397-1.496 1.266-1.108 1.874C66.971 26.606 68.145 25.508 68.565 24.997z" data-fill-palette-color="accent"></path></g></svg></g></svg></g></svg></g><defs></defs></svg><rect width="395.52" height="84.0031764383015" fill="none" stroke="none" visibility="hidden"></rect></g></svg></g></svg>